<svg width="25" height="25" viewBox="0 0 25 25" fill="none" xmlns="http://www.w3.org/2000/svg">
<path d="M9.62695 18.0649V5.06494L21.627 3.06494V16.0649" stroke="black" stroke-width="2" stroke-linecap="round" stroke-linejoin="round"/>
<path d="M6.62695 21.0649C8.28381 21.0649 9.62695 19.7218 9.62695 18.0649C9.62695 16.4081 8.28381 15.0649 6.62695 15.0649C4.9701 15.0649 3.62695 16.4081 3.62695 18.0649C3.62695 19.7218 4.9701 21.0649 6.62695 21.0649Z" stroke="black" stroke-width="2" stroke-linecap="round" stroke-linejoin="round"/>
<path d="M18.627 19.0649C20.2838 19.0649 21.627 17.7218 21.627 16.0649C21.627 14.4081 20.2838 13.0649 18.627 13.0649C16.9701 13.0649 15.627 14.4081 15.627 16.0649C15.627 17.7218 16.9701 19.0649 18.627 19.0649Z" stroke="black" stroke-width="2" stroke-linecap="round" stroke-linejoin="round"/>
</svg>
